<?xml version="1.0" encoding="UTF-8" standalone="no"?>
<!-- Created with Inkscape (http://www.inkscape.org/) -->

<svg
   version="1.1"
   id="svg2"
   width="5683.7466"
   height="4047.2932"
   viewBox="0 0 5683.7466 4047.2932"
   sodipodi:docname="vecteezy_girl-with-laptop-sitting-and-freelance-or-studying-concept_.eps"
   xmlns:inkscape="http://www.inkscape.org/namespaces/inkscape"
   xmlns:sodipodi="http://sodipodi.sourceforge.net/DTD/sodipodi-0.dtd"
   xmlns="http://www.w3.org/2000/svg"
   xmlns:svg="http://www.w3.org/2000/svg">
  <defs
     id="defs6" />
  <sodipodi:namedview
     id="namedview4"
     pagecolor="#ffffff"
     bordercolor="#000000"
     borderopacity="0.25"
     inkscape:showpageshadow="2"
     inkscape:pageopacity="0.0"
     inkscape:pagecheckerboard="0"
     inkscape:deskcolor="#d1d1d1" />
  <g
     id="g8"
     inkscape:groupmode="layer"
     inkscape:label="ink_ext_XXXXXX"
     transform="matrix(1.3333333,0,0,-1.3333333,0,4047.2933)">
    <g
       id="g10"
       transform="scale(0.1)">
      <path
         d="m 41782.1,5120.1 c 1011.8,7627.1 -5460.3,13325.5 -6265.8,14013.2 -1314.9,1122.5 -5767.4,4599.1 -12094.7,4323 -1143.1,-49.9 -7904.7,-344.9 -10977.4,-4905.8 -1696.7,-2518.6 -495.6,-3706 -2380.1,-6168.8 C 7418.57,8924.3 3927.41,9796 2486.78,6844.4 1301.86,4416.7 2557.79,1561.3 3118.23,287.102 c 28.73,-65.301 58.07,-130 87.76,-194.3012 H 39981.9 C 41413.1,2535.1 41721.5,4662.6 41782.1,5120.1"
         style="fill:#dfe9f4;fill-opacity:1;fill-rule:nonzero;stroke:none"
         id="path12" />
      <path
         d="m 8970.55,20520.3 c 1623.55,-1233.1 1263.05,-3983.1 1198.15,-4477.5 -44,-335.5 -509.15,-3470.7 -3342.28,-4855.8 -1783.91,-872.1 -4709.17,-1149.3 -6117.068,567.6 -1571.957,1917 -233.34,5077.2 1135.128,6684.6 1765.08,2073.3 5240.27,3513.4 7126.07,2081.1"
         style="fill:#dfe9f4;fill-opacity:1;fill-rule:nonzero;stroke:none"
         id="path14" />
      <path
         d="m 30360.6,6861.9 c -627.2,773.1 -1011.2,1986.7 -628.8,2976.5 300.3,777.4 755.5,594 1173.8,1341.5 831.6,1486.1 -541.9,2972 293.5,4024.4 468.8,590.7 947.1,180 1593,838.5 955.8,974.4 255.9,2228.1 1215.7,3060.3 504.1,437 754.4,140.8 1509.2,712.6 805.9,610.5 832.9,1184.7 1341.5,1257.7 534.6,76.7 1243.9,-452 1425.3,-1090 264.4,-929.8 -799.6,-1363.5 -880.4,-2766.8 -68.2,-1186.6 665.6,-1344.1 503.1,-2305.7 -218.7,-1294.8 -1598.8,-1304.2 -1928.4,-2683 -272.8,-1141.4 555.9,-1624.5 125.8,-2431.5 -487.9,-915.3 -1760.8,-681 -2096.1,-1593 -238.5,-648.6 319.4,-1001.4 41.9,-1551.1 -372.1,-737.4 -1832.7,-1007.3 -2850.6,-503 -426.5,211.2 -671.6,507 -838.5,712.6"
         style="fill:#008890;fill-opacity:1;fill-rule:nonzero;stroke:none"
         id="path16" />
      <path
         d="m 37211.7,19673.4 c -14,15.1 -37.5,15.9 -52.6,1.8 -273.9,-255.8 -538.5,-529.9 -793.7,-821.3 l 206.7,708.9 c 5.7,19.7 -5.6,40.4 -25.3,46.1 -19.7,5.7 -40.4,-5.6 -46.2,-25.3 l -248.1,-850.8 c -1.1,-3.7 -1.4,-7.4 -1.3,-11.1 -779,-915.7 -1466.8,-1997.5 -2052.5,-3230.9 -229,-482.1 -442.5,-987.7 -640.2,-1514.6 l -191.7,1533.9 c -2.6,20.4 -21.2,34.8 -41.6,32.3 -20.4,-2.5 -34.8,-21.1 -32.3,-41.5 l 209.5,-1676 c -333.2,-908.9 -619.5,-1880.1 -855.5,-2903.9 -222.8,-966.6 -374.6,-1870.1 -478,-2643.9 l -337.2,1610.8 c -4.2,20.1 -23.9,32.9 -44.1,28.8 -20.1,-4.2 -33,-23.9 -28.7,-44 L 32136.1,8070 c 0.9,-4 2.4,-7.7 4.4,-11.1 -158.7,-1257.8 -186.7,-2130.4 -190.8,-2298.8 l -5.1,0.6 c -1.2,-11.8 -122.7,-1189.8 0.1,-2111.6 l 82,10.9 c -121.5,912 -1.1,2080.3 0.2,2092 l -3,0.3 c 5.7,245 73.2,2451.9 695.6,5151.9 59.2,257 124.9,523.8 197.4,798.1 l 1760.5,880.2 c 18.4,9.2 25.9,31.6 16.7,50 -9.2,18.4 -31.6,25.8 -49.9,16.6 l -1701.8,-850.8 c 419.8,1561.8 1065.6,3360.3 2051.5,5020 0.1,0 0.1,0 0.2,0 l 1453.3,531 c 19.3,7.1 29.2,28.4 22.2,47.7 -7.1,19.3 -28.5,29.2 -47.8,22.2 l -1367.3,-499.6 c 590.9,977.5 1301.5,1903.7 2155.4,2701.2 15.1,14.1 15.9,37.6 1.8,52.6"
         style="fill:#002827;fill-opacity:1;fill-rule:nonzero;stroke:none"
         id="path18" />
      <path
         d="m 33046.4,7136.2 c -380.2,924.2 -108.9,2164.9 586.9,2557.2 518.7,292.5 804.3,-151 1383.4,83.8 1079.9,438 920.3,2318.6 1760.7,2473.4 406.3,74.9 539.4,-347.2 1006.1,-251.5 639.7,131.1 635.9,974.5 1341.5,1173.8 421.3,119 496.3,-161 1090,-83.9 738,96 931.8,568.9 1341.4,461.2 363.5,-95.6 696.1,-595.4 628.9,-1006.1 -112.4,-685.9 -1244.2,-539.6 -1802.7,-1467.3 -471.2,-783 48.8,-1362.7 -461.1,-1928.4 -500.6,-555.3 -1127.4,-135.9 -1802.6,-670.7 -770.5,-610.3 -300.9,-1430.6 -1006.1,-2138 -785.9,-788.2 -2431,-835.3 -3395.7,-83.9 -127.7,99.5 -468.2,388 -670.7,880.4"
         style="fill:#008890;fill-opacity:1;fill-rule:nonzero;stroke:none"
         id="path20" />
      <path
         d="m 41355.1,12678.4 c -4.7,20 -24.8,32.5 -44.8,27.6 -1050.7,-249.8 -2098.3,-775.6 -3113.8,-1562.7 -43.9,-34 -87.7,-68.6 -131.5,-103.6 l 318,856.3 c 7.2,19.2 -2.6,40.7 -21.9,47.8 -19.2,7.2 -40.7,-2.6 -47.8,-21.9 l -361.8,-974.1 c -725.9,-595.6 -1435.1,-1324.5 -2111.5,-2170.9 -359.8,-450.3 -676.1,-891.5 -945,-1293.7 l -78.7,1652.9 c -1,20.5 -17.6,36.5 -39,35.4 -20.5,-1 -36.4,-18.5 -35.4,-39 l 83.6,-1754 C 34221,6462.4 33872.8,5771 33828.2,5681.1 l -0.6,0.4 c -6.9,-12.2 -689.7,-1228.1 -970.2,-2115.3 l 78.9,-24.9 c 277.9,878.9 956.5,2087.4 963.3,2099.5 l -6.4,3.7 c 50.8,102.8 770.1,1540.6 2004.9,3085.9 171.7,214.9 358.9,438.3 560.5,664.8 l 1481.1,167.7 c 20.5,2.3 35.2,20.8 32.9,41.2 -2.4,20.4 -20.9,35 -41.2,32.8 l -1398,-158.3 c 753.3,834.6 1701.5,1703.5 2804.7,2343.1 l 1082.9,-83.3 c 1,-0.1 1.9,-0.1 2.9,-0.1 19.2,0 35.5,14.8 37,34.3 1.6,20.5 -13.7,38.4 -34.2,40 l -973.3,74.9 c 584.4,327 1211,588.4 1874.1,746.1 20,4.8 32.4,24.8 27.6,44.8"
         style="fill:#002827;fill-opacity:1;fill-rule:nonzero;stroke:none"
         id="path22" />
      <path
         d="m 28230,6088.2 c -141.3,82.5 -820.3,498.2 -1080.6,1285.6 -213.6,645.9 57.7,900.9 -209.7,1341.5 -326.3,537.9 -890.5,337 -1173.8,838.5 -274.7,486.3 138.6,882.9 0,1593 -145.3,744.9 -947.1,764.3 -964.2,1341.5 -10.7,363.9 257.3,773.1 540.4,810.5 392.3,51.8 525.8,-648.7 1173.8,-782.6 431,-89 535.9,187 987.5,74.6 405.9,-101.1 767.5,-435.3 912.9,-819.8 144.5,-382 -41.5,-503.6 93.2,-782.6 257,-532.3 1010.1,-247 1453.3,-763.9 452.1,-527.3 -56.5,-1145.1 447.1,-1825.9 337.3,-455.8 691.7,-349.6 838.5,-726.7 214.2,-550.2 -284.4,-1434 -1006.2,-1788.6 -901.8,-443 -1829.9,98.6 -2012.2,204.9"
         style="fill:#008890;fill-opacity:1;fill-rule:nonzero;stroke:none"
         id="path24" />
      <path
         d="m 30184.7,6356 -5.2,-1.7 c -98.3,293.3 -212.1,586.6 -341.1,879 1.6,3.5 2.7,7.3 3.1,11.4 l 69.8,768.6 c 1.9,20.5 -13.2,38.6 -33.7,40.4 -20.3,1.7 -38.5,-13.2 -40.4,-33.7 l -59.3,-652.1 c -179.2,391.6 -385.6,781.4 -618.5,1167.5 -250.8,415.9 -532.5,828 -842.2,1232.8 1.4,5.6 1.7,11.4 0.4,17.3 l -223.6,992.2 c -4.5,20 -24.4,32.6 -44.5,28.1 -20.1,-4.5 -32.7,-24.4 -28.1,-44.5 l 194.2,-861.8 c -214.9,274.2 -442.5,545 -682.3,811.1 -1073.2,1190.9 -2029.5,1884.9 -2039,1891.7 -16.7,12 -40,8.3 -52,-8.4 -12,-16.7 -8.2,-39.9 8.4,-52 7.9,-5.6 661.7,-480.1 1493.3,-1317 l -628.1,84.5 c -20.2,2.8 -39.1,-11.5 -41.9,-31.9 -2.7,-20.4 11.6,-39.1 32,-41.8 l 723.4,-97.4 c 145.5,-148.7 295.9,-308 448.6,-477.6 545.7,-605.5 1184.5,-1412.5 1738.9,-2373.7 l -1637.3,505.8 c -19.5,6.1 -40.5,-4.9 -46.6,-24.6 -6.1,-19.6 4.9,-40.4 24.6,-46.5 l 1713.2,-529.3 c 322.6,-571 613.8,-1194.8 837.8,-1861.8 l -2.4,-0.8 c 4.7,-14 466,-1410.5 480,-2525.5 l 82.7,1 c -14.1,1127.7 -479.5,2536.6 -484.2,2550.7"
         style="fill:#002827;fill-opacity:1;fill-rule:nonzero;stroke:none"
         id="path26" />
      <path
         d="m 34330.7,5182.1 h -4423.8 c -192.4,0 -339.4,-171.8 -309.6,-361.9 l 698.3,-4455.501 c 23.9,-152.398 155.2,-264.8006 309.6,-264.8006 h 3027.2 c 154.4,0 285.8,112.4026 309.7,264.8006 l 698.2,4455.501 c 29.8,190.1 -117.2,361.9 -309.6,361.9"
         style="fill:#f05a39;fill-opacity:1;fill-rule:nonzero;stroke:none"
         id="path28" />
      <path
         d="m 17893.1,3330.7 c 0,0 2354.3,-1556.7 4457.7,-894.3 35,11 69.6,21.5 103.8,31.8 235.1,-213.5 556.8,-610.4 511.6,-1157.8 -46.1,-558.802 -662.2,-906.201 -1255.1,-1040.599 -132.7,44 -270,93.898 -412.4,150.301 0,0 -1533.6,371.199 -2209.1,392.898 -675.5,21.602 -2041.1,612.8 -2041.1,612.8 l 844.6,1904.9"
         style="fill:#f9a17b;fill-opacity:1;fill-rule:nonzero;stroke:none"
         id="path30" />
      <path
         d="m 22966.2,1310.4 c 45.2,547.4 -276.5,944.3 -511.6,1157.8 2023,606.9 2707.2,-89.1 2730.4,-680.9 22.6,-575.6 -557.5,-2486.898 -3473.9,-1517.499 592.9,134.398 1209,481.797 1255.1,1040.599"
         style="fill:#008890;fill-opacity:1;fill-rule:nonzero;stroke:none"
         id="path32" />
      <path
         d="m 16707.7,7390.3 -7981.22,858.2 c 0,0 -2360.05,472 -2102.59,-1845.2 257.46,-2317.1 7895.41,-5149.1 10083.81,-5320.8 0,0 2875,-686.598 5492.5,0 2617.5,686.6 7638,2360.1 9054,3776.1 1416,1416 472,3469 -1716.4,3429.4 -2188.4,-39.5 -5921.6,-940.6 -7552.1,-1369.7 -1630.6,-429.1 -2720.9,-257.5 -2720.9,-257.5 l -2557.1,729.5"
         style="fill:#002827;fill-opacity:1;fill-rule:nonzero;stroke:none"
         id="path34" />
      <path
         d="m 17264.1,1987.3 560.6,1343.4 2458.9,-814.2 c 0,0 -1055.8,-1013.8 -3019.5,-529.2"
         style="fill:#e28564;fill-opacity:1;fill-rule:nonzero;stroke:none"
         id="path36" />
      <path
         d="m 20804,2840.3 c -14.6,0 -28.9,7 -37.7,20.1 -14,20.8 -8.4,49 12.4,62.9 3.8,2.6 392.1,261.8 1101.9,619.6 654.3,329.9 1724.5,813.9 3107.2,1247.1 24.1,7.5 49.4,-5.8 56.9,-29.7 7.5,-24 -5.8,-49.4 -29.7,-56.9 -1375.9,-431 -2440.7,-912.5 -3091.6,-1240.6 -705.4,-355.4 -1090.3,-612.3 -1094.1,-614.8 -7.8,-5.2 -16.6,-7.7 -25.3,-7.7"
         style="fill:#ffffff;fill-opacity:1;fill-rule:nonzero;stroke:none"
         id="path38" />
      <path
         d="m 20818,2899.4 c 0,0 -2498.5,-1312.8 -4525,-442.8 -33.7,14.5 -67,28.5 -100,42.1 -255.3,-188.8 -615.2,-551.5 -625.2,-1100.6 -10.1,-560.702 568.1,-968.1 1144.5,-1161.299 136.4,30.5 278,66.398 425.3,108.199 0,0 1563.2,215.5 2237.4,169.301 674.3,-46.102 2092.3,405.097 2092.3,405.097 L 20818,2899.4"
         style="fill:#f9a17b;fill-opacity:1;fill-rule:nonzero;stroke:none"
         id="path40" />
      <path
         d="m 15567.8,1398.1 c 10,549.1 369.9,911.8 625.2,1100.6 -1951.9,806.7 -2702.5,182.8 -2784.9,-403.6 -80.2,-570.5 305.3,-2530.299 3304.2,-1858.299 C 16135.9,430 15557.7,837.398 15567.8,1398.1"
         style="fill:#008890;fill-opacity:1;fill-rule:nonzero;stroke:none"
         id="path42" />
      <path
         d="m 11195.1,12663.6 c 0,0 -717,-4799.5 2091.9,-6374.2 0,0 2252.8,-525.1 1544.8,1379.8 -708.1,1904.9 -1094.2,3610.5 -997.7,4994.4 96.5,1383.8 -2317.1,1190.7 -2639,0"
         style="fill:#f9a17b;fill-opacity:1;fill-rule:nonzero;stroke:none"
         id="path44" />
      <path
         d="m 26847.6,13327.2 c 0,0 717,-4799.5 -2091.8,-6374.2 0,0 -2252.8,-525.1 -1544.8,1379.8 708,1904.9 1094.2,3610.5 997.7,4994.4 -96.6,1383.8 2317.1,1190.7 2638.9,0"
         style="fill:#f9a17b;fill-opacity:1;fill-rule:nonzero;stroke:none"
         id="path46" />
      <path
         d="m 17371.1,29412 c 0,0 -3829.7,-1158.6 -3250.5,-2993 579.3,-1834.4 708.1,-2445.9 -193.1,-3668.8 -901.1,-1222.9 386.2,-1512.6 0,-2445.9 -386.1,-933.3 -2864.2,-2091.8 -868.9,-4183.7 1995.3,-2091.9 5181.4,-2349.3 6436.5,-965.5 1255.1,1383.9 4022.8,-1673.5 5664.1,-128.7 1641.3,1544.8 1223,4730.8 0,5728.5 -1222.9,997.6 740.2,2252.8 321.9,3604.4 -418.4,1351.7 -1866.6,708 -2027.5,2091.9 -161,1383.8 -804.6,3443.5 -2993,3829.7 -2188.4,386.2 -3089.5,-868.9 -3089.5,-868.9"
         style="fill:#002827;fill-opacity:1;fill-rule:nonzero;stroke:none"
         id="path48" />
      <path
         d="m 17995,20606.5 c 0,0 -2917.8,-42.9 -3604.4,-1501.8 -686.6,-1458.9 -3175.3,-5578.3 -3690.3,-7423.4 l 2917.9,-686.6 1673.5,2531.7 c 0,0 1029.8,-4076.4 472,-6436.5 h 8110 c 0,0 -901.1,3561.5 -514.9,6758.3 0,0 1158.5,-2166.9 1458.9,-2896.4 l 2917.9,729.5 c 0,0 -2574.6,5578.3 -3690.3,7423.4 0,0 -1501.8,1416 -3346.9,1330.2 0,0 858.2,-686.6 -557.9,-1244.4 -1416,-557.8 -2360,-300.4 -2145.5,1416"
         style="fill:#f05a39;fill-opacity:1;fill-rule:nonzero;stroke:none"
         id="path50" />
      <path
         d="m 18080.4,28242.1 c 0,0 -450.6,-686.6 -965.5,-965.5 -514.9,-278.9 -750.9,-1802.2 0,-3325.5 750.9,-1523.3 1158.6,-1609.1 1158.6,-1609.1 0,0 -107.3,-1201.5 -686.6,-1695 0,0 -343.3,-1416 944,-1823.7 1287.3,-407.6 2703.4,236.1 2660.5,1523.4 0,0 -579.3,1244.3 -622.2,1952.4 0,0 1094.2,944 1222.9,2510.2 128.7,1566.2 -1394.6,1694.9 -2016.8,2166.9 -622.2,472.1 -1437.5,622.2 -1694.9,1265.9"
         style="fill:#f9a17b;fill-opacity:1;fill-rule:nonzero;stroke:none"
         id="path52" />
      <path
         d="m 20103,24884.9 c 80.4,-114.1 235.3,-139.4 345.9,-56.3 110.6,83 135,242.9 54.6,357.1 -80.4,114.1 -235.3,139.4 -345.9,56.3 -110.6,-83 -135,-242.9 -54.6,-357.1"
         style="fill:#000000;fill-opacity:1;fill-rule:nonzero;stroke:none"
         id="path54" />
      <path
         d="m 18055.5,25035.3 c 0,-141.2 110.9,-255.6 247.6,-255.6 136.8,0 247.6,114.4 247.6,255.6 0,141.2 -110.8,255.6 -247.6,255.6 -136.7,0 -247.6,-114.4 -247.6,-255.6"
         style="fill:#000000;fill-opacity:1;fill-rule:nonzero;stroke:none"
         id="path56" />
      <path
         d="m 19272.5,25161.9 c 0,0 563.4,-886.4 437.4,-1044.6 -126,-158.2 -408,-214.5 -713.2,-82.9 l 225.1,1032.9 c 0,0 7.6,77.7 50.7,94.6"
         style="fill:#d16a46;fill-opacity:1;fill-rule:nonzero;stroke:none"
         id="path58" />
      <path
         d="m 20932.2,25797.4 c 28,48.7 3.1,118.4 -20.6,156.3 -64,102.3 -204,107.8 -350.8,113.6 -154.4,6.1 -321.9,12.6 -378.3,-92.3 -23.6,-44.1 -28.6,-109.4 0,-156.3 35.2,-57.7 103.4,-58 398.9,-63.9 255.8,-5 322.3,-7.1 350.8,42.6"
         style="fill:#000000;fill-opacity:1;fill-rule:nonzero;stroke:none"
         id="path60" />
      <path
         d="m 18538.3,25797.4 c 28,48.7 3.1,118.4 -20.6,156.3 -64,102.3 -203.9,107.8 -350.8,113.6 -154.4,6.1 -321.9,12.6 -378.3,-92.3 -23.6,-44.1 -28.6,-109.4 0,-156.3 35.2,-57.7 103.4,-58 399,-63.9 255.7,-5 322.2,-7.1 350.7,42.6"
         style="fill:#000000;fill-opacity:1;fill-rule:nonzero;stroke:none"
         id="path62" />
      <path
         d="m 19267,22792 c 516.3,66.6 727.8,469.5 788.6,617 h -1581.7 c 53.8,-169.8 261.8,-685.6 793.1,-617"
         style="fill:#ffffff;fill-opacity:1;fill-rule:nonzero;stroke:none"
         id="path64" />
      <path
         d="m 18273.5,22342 c 0,0 657.7,-313.3 1150.4,-281.1 0,0 -1356.1,-1454.6 -1837,-1413.9 0,0 749.1,1235.9 686.6,1695"
         style="fill:#d16a46;fill-opacity:1;fill-rule:nonzero;stroke:none"
         id="path66" />
      <path
         d="M 25783.2,5317.5 H 12652.7 v 7903.9 H 25783.2 V 5317.5"
         style="fill:#fcfcfc;fill-opacity:1;fill-rule:nonzero;stroke:none"
         id="path68" />
      <path
         d="m 20085.6,9206.2 c 0,-479.2 -388.4,-867.6 -867.6,-867.6 -479.2,0 -867.7,388.4 -867.7,867.6 0,479.2 388.5,867.6 867.7,867.6 479.2,0 867.6,-388.4 867.6,-867.6"
         style="fill:#e0eaec;fill-opacity:1;fill-rule:nonzero;stroke:none"
         id="path70" />
      <path
         d="m 17824.7,3285.3 c -5.9,0 -11.9,1.1 -17.8,3.6 l -3325.5,1416 c -23,9.9 -33.8,36.5 -24,59.6 9.9,23 36.5,33.7 59.6,23.9 l 3325.5,-1416 c 23.1,-9.8 33.8,-36.5 24,-59.5 -7.4,-17.3 -24.2,-27.6 -41.8,-27.6"
         style="fill:#ffffff;fill-opacity:1;fill-rule:nonzero;stroke:none"
         id="path72" />
      <path
         d="m 23358.7,13802.8 c -23.9,0 -43.9,18.8 -45.2,43 -0.3,4.3 -18,293.6 -163.1,714.4 -134.2,389 -407.8,973.3 -949.7,1548 -17.2,18.2 -16.3,46.9 1.9,64.1 18.2,17.2 47,16.4 64.1,-1.9 554.2,-587.7 833.8,-1185.9 970.7,-1584.3 148.9,-433 166,-723.3 166.7,-735.4 1.3,-25.1 -17.9,-46.4 -42.9,-47.8 -0.8,0 -1.6,-0.1 -2.5,-0.1"
         style="fill:#ffffff;fill-opacity:1;fill-rule:nonzero;stroke:none"
         id="path74" />
      <path
         d="m 15302.6,13545.4 c -0.8,0 -1.6,0 -2.5,0 -25,1.4 -44.2,22.8 -42.8,47.8 0.6,12.1 17.8,302.5 166.6,735.4 137,398.4 416.6,996.6 970.7,1584.3 17.2,18.3 45.9,19.1 64.2,1.9 18.2,-17.2 19,-45.9 1.8,-64.1 -543,-576 -816.8,-1161.7 -950.8,-1551.6 -144.8,-421.1 -161.8,-708 -161.9,-710.8 -1.3,-24.2 -21.3,-42.9 -45.3,-42.9"
         style="fill:#ffffff;fill-opacity:1;fill-rule:nonzero;stroke:none"
         id="path76" />
      <path
         d="M 42537.4,2.10156 H 589.895 c -50.122,0 -90.762,40.59764 -90.762,90.69924 0,50.1012 40.64,90.7972 90.762,90.7972 H 42537.4 c 50.1,0 90.7,-40.696 90.7,-90.7972 0,-50.1016 -40.6,-90.69924 -90.7,-90.69924"
         style="fill:#002827;fill-opacity:1;fill-rule:nonzero;stroke:none"
         id="path78" />
    </g>
  </g>
</svg>
