<?xml version="1.0" encoding="UTF-8" standalone="no"?>
<!-- Created with Inkscape (http://www.inkscape.org/) -->

<svg
   version="1.1"
   id="svg2"
   width="493.07999"
   height="499.20001"
   viewBox="0 0 493.07999 499.20001"
   sodipodi:docname="Education_(165).eps"
   xmlns:inkscape="http://www.inkscape.org/namespaces/inkscape"
   xmlns:sodipodi="http://sodipodi.sourceforge.net/DTD/sodipodi-0.dtd"
   xmlns="http://www.w3.org/2000/svg"
   xmlns:svg="http://www.w3.org/2000/svg">
  <defs
     id="defs6" />
  <sodipodi:namedview
     id="namedview4"
     pagecolor="#ffffff"
     bordercolor="#000000"
     borderopacity="0.25"
     inkscape:showpageshadow="2"
     inkscape:pageopacity="0.0"
     inkscape:pagecheckerboard="0"
     inkscape:deskcolor="#d1d1d1" />
  <g
     id="g8"
     inkscape:groupmode="layer"
     inkscape:label="ink_ext_XXXXXX"
     transform="matrix(1.3333333,0,0,-1.3333333,0,499.2)">
    <g
       id="g10"
       transform="scale(0.1)">
      <path
         d="M 561.418,3136.66 C 809.215,3384.46 1591.27,3004.15 2308.2,2287.23 3025.12,1570.29 3405.43,788.242 3157.63,540.438 2909.84,292.645 2127.78,672.949 1410.86,1389.88 693.93,2106.8 313.621,2888.87 561.418,3136.66 Z"
         style="fill:none;stroke:#eec10d;stroke-width:115.2;stroke-linecap:butt;stroke-linejoin:miter;stroke-miterlimit:2.6131;stroke-dasharray:none;stroke-opacity:1"
         id="path12" />
      <path
         d="m 2334.67,3611.8 c 338.49,-90.7 400.17,-958.13 137.76,-1937.48 C 2210,694.988 1722.88,-25.4023 1384.39,65.3008 1045.89,156.008 984.219,1023.44 1246.63,2002.78 1509.04,2982.12 1996.18,3702.5 2334.67,3611.8 Z"
         style="fill:none;stroke:#e75959;stroke-width:115.2;stroke-linecap:butt;stroke-linejoin:miter;stroke-miterlimit:2.6131;stroke-dasharray:none;stroke-opacity:1"
         id="path14" />
      <path
         d="M 86.2734,1363.41 C -4.42188,1701.9 715.961,2189.04 1695.3,2451.45 2674.64,2713.86 3542.08,2652.19 3632.78,2313.7 3723.48,1975.2 3003.09,1488.07 2023.75,1225.65 1044.41,963.242 176.977,1024.92 86.2734,1363.41 Z"
         style="fill:none;stroke:#53beb4;stroke-width:115.2;stroke-linecap:butt;stroke-linejoin:miter;stroke-miterlimit:2.6131;stroke-dasharray:none;stroke-opacity:1"
         id="path16" />
      <path
         d="m 1684.28,2051.21 c 112.28,112.28 294.33,112.28 406.6,0 112.29,-112.28 112.29,-294.33 0,-406.61 -112.27,-112.28 -294.32,-112.28 -406.6,0 -112.28,112.28 -112.28,294.33 0,406.61"
         style="fill:#2753a3;fill-opacity:1;fill-rule:evenodd;stroke:none"
         id="path18" />
      <path
         d="m 410.934,2789.95 c 51.621,51.62 135.316,51.62 186.937,0 51.625,-51.63 51.625,-135.32 0,-186.95 -51.621,-51.62 -135.316,-51.62 -186.937,0 -51.625,51.63 -51.625,135.32 0,186.95"
         style="fill:#63b9ea;fill-opacity:1;fill-rule:evenodd;stroke:none"
         id="path20" />
      <path
         d="m 2241.2,3705.28 c 51.62,51.62 135.32,51.62 186.94,0 51.62,-51.63 51.62,-135.33 0,-186.95 -51.62,-51.62 -135.32,-51.62 -186.94,0 -51.63,51.62 -51.63,135.32 0,186.95"
         style="fill:#63b9ea;fill-opacity:1;fill-rule:evenodd;stroke:none"
         id="path22" />
      <path
         d="m 2989.49,1355.14 c 51.63,51.62 135.32,51.62 186.95,0 51.62,-51.62 51.62,-135.33 0,-186.96 -51.63,-51.61 -135.32,-51.61 -186.95,0 -51.62,51.63 -51.62,135.34 0,186.96"
         style="fill:#63b9ea;fill-opacity:1;fill-rule:evenodd;stroke:none"
         id="path24" />
      <path
         d="m 993.488,848.387 c 51.622,51.621 135.322,51.621 186.942,0 51.62,-51.621 51.62,-135.321 0,-186.942 -51.62,-51.621 -135.32,-51.621 -186.942,0 -51.629,51.621 -51.629,135.321 0,186.942"
         style="fill:#63b9ea;fill-opacity:1;fill-rule:evenodd;stroke:none"
         id="path26" />
      <path
         d="m 3056.34,2684.73 c 51.62,51.63 135.32,51.63 186.95,0 51.62,-51.62 51.62,-135.32 0,-186.94 -51.63,-51.62 -135.33,-51.62 -186.95,0 -51.62,51.62 -51.62,135.32 0,186.94"
         style="fill:#63b9ea;fill-opacity:1;fill-rule:evenodd;stroke:none"
         id="path28" />
      <path
         d="m 38.7227,1716.86 c 51.6211,51.62 135.3203,51.62 186.9413,0 51.625,-51.63 51.625,-135.33 0,-186.95 -51.621,-51.62 -135.3202,-51.62 -186.9413,0 -51.629,51.62 -51.629,135.32 0,186.95"
         style="fill:#63b9ea;fill-opacity:1;fill-rule:evenodd;stroke:none"
         id="path30" />
    </g>
  </g>
</svg>
